# xmcd
#
# Track frame offsets: 
#        150
#        14251
#        39485
#        50893
#        59492
#        63275
#        69618
#        80219
#        91058
#        104833
#        116118
#        128494
#        133842
#        143104
#        153557
#        168655
#        180989
#
# Disc length: 2584 seconds
#
# Revision: 3
# Processed by: cddbd v1.5.2PL0 Copyright (c) Steve Scherf et al.
# Submitted via: ExactAudioCopy v0.99pb5
#
DISCID=fa0a1611
DTITLE=Various Artist - Die Hits des Ostens Vol.5 - Partei-Pop
DYEAR=2009
DGENRE=DDR
TTITLE0=Oktoberklub - Auf, auf zum Kampf
TTITLE1=Arbeiterfolk Zwickau - Das reine Glück des Aufbaus
TTITLE2=Hartmut König and Oktoberklub - Sag mir, wo du stehst
TTITLE3=Pionierchor "Edgar André" - Fröhlich sein und singen
TTITLE4=Pioniere - Pioniergelöbnis
TTITLE5=Perry Friedmann - Kleine weiße Friedenstaube
TTITLE6=Kurt Demmler and Oktoberklub - Was machen wir zu Pfingsten
TTITLE7=Pionierchor des Zentralhauses der Jungen Pioniere "German Tito
TTITLE7=w" - Lied vom kleinen Trompeter
TTITLE8=Arbeiterchor aus Berliner Betrieben - Stalin, Freund, Genosse
TTITLE9=Chor der Musikschule Berlin Lichtenberg - Pioniermarsch
TTITLE10=Rundfunk Jugendchor Wernigerode - Thälmann/Lied
TTITLE11=Rundfunk Vorschulchor Leipzig - Wenn Mutti früh zur Arbeit ge
TTITLE11=ht
TTITLE12=Elke und der Kinderchor des "Edgar André" Ensembles - Unser H
TTITLE12=eimatland
TTITLE13=Jugendchor Leipzig - Fritz, der Traktorist
TTITLE14=Ernst Busch and Der Chor der Staatsoper Berlin - Lied der Parte
TTITLE14=i
TTITLE15=Bernd Riedel - Mit Walter Ulbricht kämpft ´s sich ´s gut
TTITLE16=Berliner Rundfunksinfonie Orchester and Großer Chor des Berline
TTITLE16=r Rundfunks - Nationalhymne der DDR
EXTD=YEAR: 2009
EXTT0=
EXTT1=
EXTT2=
EXTT3=
EXTT4=
EXTT5=
EXTT6=
EXTT7=
EXTT8=
EXTT9=
EXTT10=
EXTT11=
EXTT12=
EXTT13=
EXTT14=
EXTT15=
EXTT16=
PLAYORDER=
